<?xml version="1.0" standalone="no"?><!DOCTYPE svg PUBLIC "-//W3C//DTD SVG 1.1//EN" "http://www.w3.org/Graphics/SVG/1.1/DTD/svg11.dtd"><svg t="1702862846138" class="icon" viewBox="0 0 1190 1024" version="1.1" xmlns="http://www.w3.org/2000/svg" p-id="14566" id="mx_n_1702862846140" xmlns:xlink="http://www.w3.org/1999/xlink" width="232.421875" height="200"><path d="M1053.773298 160.744414c47.629428-29.760217 89.293731-83.354769 107.162943-142.888284-47.629428 29.773298-101.210899 53.633797-154.792371 59.533515C964.466485 29.760217 898.980927 0 827.530244 0 690.607085 0 583.431061 113.114986 583.431061 256.00327c0 17.85613 0 41.664303 5.952043 59.533515-202.421799-11.917168-381.022343-113.114986-506.054497-267.907357C65.485558 83.341688 53.633797 130.984198 53.633797 178.613626c0 89.293731 35.725341 166.696458 101.2109 214.325885-41.677385 0-113.114986-11.917168-113.114987-29.773298v5.952043c0 125.019073 89.306813 226.229972 202.408718 250.051228-17.85613 5.952043-41.664303 11.904087-59.520433 11.904086s-29.773298 0-47.629428-5.952043c29.760217 101.197818 119.040867 178.600544 226.229972 178.600544C279.811444 875.146591 172.674664 916.837057 59.533515 916.837057c-17.85613 0-41.677385 0-59.533515-5.952043a678.742242 678.742242 0 0 0 375.0703 113.114986c446.507901 0 696.559128-392.92643 696.559128-732.28447v-35.71226c47.629428-35.725341 89.306813-83.354769 119.040867-130.984197-35.725341 17.869211-83.341688 29.773298-136.92316 35.725341z m0 0" fill="#1890FF" p-id="14567"></path></svg>